<?xml version="1.0" encoding="utf-8"?>
<!-- Generator: Adobe Illustrator 24.0.1, SVG Export Plug-In . SVG Version: 6.00 Build 0)  -->
<svg version="1.1" id="Layer_1" xmlns="http://www.w3.org/2000/svg" xmlns:xlink="http://www.w3.org/1999/xlink" x="0px" y="0px"
	 viewBox="0 0 792 612" style="enable-background:new 0 0 792 612;" xml:space="preserve">
<style type="text/css">
	.st0{fill:#FDFDFD;}
</style>
<path class="st0" d="M258.05,442.3c93.62,0,187.25-0.01,280.87,0.07c2.8,0,3.46-0.66,3.46-3.46c-0.08-93.62-0.07-187.24-0.07-280.86
	c1.15,0.5,0.52,1.5,0.52,2.22c0.05,11.57,0.03,23.13,0.03,34.7c0,81.8-0.01,163.59,0.05,245.39c0,2.08-0.47,2.55-2.55,2.55
	c-93.27-0.06-186.54-0.05-279.82-0.09C259.74,442.82,258.67,443.46,258.05,442.3z"/>
<path class="st0" d="M451.16,264.98c-0.21,4.43-0.42,8.87-0.62,13.3c-0.13,2.97,0.76,3.74,3.62,2.83c3.86-1.23,7.66-2.65,11.51-3.93
	c1.67-0.56,3.38-0.78,5.18-0.5c5.13,0.79,7.42,5.86,4.49,10.18c-1.42,2.1-3.42,3.61-5.51,5c-4.16,2.75-8.37,5.43-12.44,8.31
	c-4.84,3.43-5.24,4.93-3.55,10.55c2.84,9.44,8.26,17.26,15.14,24.15c6.33,6.34,13.69,11.21,21.64,15.28
	c1.49,0.76,3.7,1.23,3.61,3.36c-0.08,1.97-2.1,2.64-3.61,3.5c-4.53,2.6-9.54,3.93-14.53,5.25c-4.55,1.21-7.66,3.43-7.8,8.62
	c-0.07,2.66-1.56,4.25-4.35,4.44c-3.59,0.24-7.18,0.57-10.78,0.79c-8.73,0.53-16.84,2.91-24.26,7.69c-6.3,4.06-12.87,7.55-20.47,8.7
	c-11.46,1.73-22.24,0.11-32.28-5.87c-5.93-3.53-11.68-7.4-18.61-8.96c-5.63-1.26-11.32-1.7-17.04-1.99c-1.47-0.08-2.93-0.3-4.4-0.42
	c-2.4-0.21-3.84-1.55-3.88-3.89c-0.11-6.01-3.98-8.21-9.04-9.47c-5.02-1.24-9.97-2.73-14.43-5.46c-3.63-2.22-3.66-3.87,0.11-5.77
	c10.93-5.53,20.73-12.47,28.32-22.24c4.58-5.89,8.12-12.3,9.94-19.6c0.81-3.25,0.08-5.79-2.78-7.7c-4.46-2.96-8.87-6-13.32-8.98
	c-1.77-1.19-3.51-2.41-4.93-4.01c-2.36-2.65-2.87-5.7-1.4-8.41c1.29-2.37,4.05-3.58,7.44-3.1c3.96,0.57,7.62,2.13,11.33,3.54
	c6.85,2.6,6.75,1.17,6.38-4.45c-0.67-9.97-1.16-19.99,0.61-29.89c3.28-18.3,14.37-30.25,31.72-35.72
	c19.9-6.28,38.61-3.49,54.61,10.82c9.01,8.05,13.04,18.6,13.91,30.47C451.03,255.91,451.32,260.44,451.16,264.98z"/>
</svg>
